<svg width="196" height="31" viewBox="0 0 196 31" fill="none" xmlns="http://www.w3.org/2000/svg">
<path d="M9.40501 24.288C7.35901 24.288 5.64301 23.991 4.25701 23.397C2.89301 22.781 1.84801 21.989 1.12201 21.021C0.418012 20.031 0.0440118 18.997 1.17905e-05 17.919C1.17905e-05 17.721 0.0660118 17.556 0.198012 17.424C0.330012 17.292 0.495012 17.226 0.693012 17.226H3.63001C3.91601 17.226 4.12501 17.292 4.25701 17.424C4.41101 17.534 4.54301 17.677 4.65301 17.853C4.78501 18.271 5.03801 18.689 5.41201 19.107C5.78601 19.503 6.29201 19.833 6.93001 20.097C7.59001 20.361 8.41501 20.493 9.40501 20.493C10.989 20.493 12.166 20.229 12.936 19.701C13.728 19.173 14.124 18.458 14.124 17.556C14.124 16.918 13.915 16.412 13.497 16.038C13.079 15.642 12.43 15.29 11.55 14.982C10.692 14.652 9.54801 14.311 8.11801 13.959C6.46801 13.563 5.08201 13.09 3.96001 12.54C2.86001 11.968 2.02401 11.253 1.45201 10.395C0.902012 9.53701 0.627012 8.44801 0.627012 7.12801C0.627012 5.85201 0.968012 4.71901 1.65001 3.72901C2.35401 2.73901 3.34401 1.95801 4.62001 1.38601C5.91801 0.814007 7.45801 0.528007 9.24001 0.528007C10.67 0.528007 11.935 0.726007 13.035 1.12201C14.135 1.49601 15.048 2.00201 15.774 2.64001C16.5 3.25601 17.05 3.92701 17.424 4.65301C17.82 5.35701 18.029 6.05001 18.051 6.73201C18.051 6.90801 17.985 7.07301 17.853 7.22701C17.743 7.35901 17.578 7.42501 17.358 7.42501H14.289C14.113 7.42501 13.937 7.38101 13.761 7.29301C13.585 7.20501 13.442 7.04001 13.332 6.79801C13.2 6.11601 12.771 5.53301 12.045 5.04901C11.319 4.56501 10.384 4.32301 9.24001 4.32301C8.05201 4.32301 7.09501 4.54301 6.36901 4.98301C5.64301 5.42301 5.28001 6.10501 5.28001 7.02901C5.28001 7.64501 5.45601 8.16201 5.80801 8.58001C6.18201 8.97601 6.76501 9.32801 7.55701 9.63601C8.37101 9.94401 9.43801 10.274 10.758 10.626C12.628 11.044 14.157 11.528 15.345 12.078C16.533 12.628 17.402 13.332 17.952 14.19C18.502 15.026 18.777 16.093 18.777 17.391C18.777 18.843 18.381 20.086 17.589 21.12C16.819 22.132 15.73 22.913 14.322 23.463C12.914 24.013 11.275 24.288 9.40501 24.288ZM24.3739 23.958C24.1539 23.958 23.9669 23.881 23.8129 23.727C23.6589 23.573 23.5819 23.386 23.5819 23.166V7.59001C23.5819 7.37001 23.6589 7.18301 23.8129 7.02901C23.9669 6.87501 24.1539 6.79801 24.3739 6.79801H27.1129C27.3549 6.79801 27.5419 6.87501 27.6739 7.02901C27.8279 7.18301 27.9049 7.37001 27.9049 7.59001V23.166C27.9049 23.386 27.8279 23.573 27.6739 23.727C27.5419 23.881 27.3549 23.958 27.1129 23.958H24.3739ZM24.2419 3.96001C23.9999 3.96001 23.8019 3.89401 23.6479 3.76201C23.5159 3.60801 23.4499 3.41001 23.4499 3.16801V0.792007C23.4499 0.572007 23.5159 0.385007 23.6479 0.231006C23.8019 0.0770071 23.9999 7.45058e-06 24.2419 7.45058e-06H27.2449C27.4869 7.45058e-06 27.6849 0.0770071 27.8389 0.231006C27.9929 0.385007 28.0699 0.572007 28.0699 0.792007V3.16801C28.0699 3.41001 27.9929 3.60801 27.8389 3.76201C27.6849 3.89401 27.4869 3.96001 27.2449 3.96001H24.2419ZM34.494 23.958C34.274 23.958 34.087 23.881 33.933 23.727C33.779 23.573 33.702 23.386 33.702 23.166V7.59001C33.702 7.37001 33.779 7.18301 33.933 7.02901C34.087 6.87501 34.274 6.79801 34.494 6.79801H37.068C37.288 6.79801 37.475 6.87501 37.629 7.02901C37.783 7.18301 37.86 7.37001 37.86 7.59001V8.71201C38.322 8.09601 38.938 7.57901 39.708 7.16101C40.5 6.72101 41.435 6.49001 42.513 6.46801C45.021 6.42401 46.77 7.40301 47.76 9.40501C48.266 8.52501 48.992 7.82101 49.938 7.29301C50.906 6.74301 51.973 6.46801 53.139 6.46801C54.283 6.46801 55.317 6.73201 56.241 7.26001C57.187 7.78801 57.924 8.59101 58.452 9.66901C59.002 10.725 59.277 12.067 59.277 13.695V23.166C59.277 23.386 59.2 23.573 59.046 23.727C58.892 23.881 58.705 23.958 58.485 23.958H55.779C55.559 23.958 55.372 23.881 55.218 23.727C55.064 23.573 54.987 23.386 54.987 23.166V13.959C54.987 12.969 54.844 12.188 54.558 11.616C54.272 11.022 53.887 10.604 53.403 10.362C52.919 10.12 52.38 9.99901 51.786 9.99901C51.302 9.99901 50.818 10.12 50.334 10.362C49.85 10.604 49.454 11.022 49.146 11.616C48.838 12.188 48.684 12.969 48.684 13.959V23.166C48.684 23.386 48.607 23.573 48.453 23.727C48.299 23.881 48.112 23.958 47.892 23.958H45.186C44.944 23.958 44.746 23.881 44.592 23.727C44.46 23.573 44.394 23.386 44.394 23.166V13.959C44.394 12.969 44.24 12.188 43.932 11.616C43.624 11.022 43.228 10.604 42.744 10.362C42.26 10.12 41.743 9.99901 41.193 9.99901C40.687 9.99901 40.192 10.131 39.708 10.395C39.224 10.637 38.828 11.044 38.52 11.616C38.212 12.188 38.058 12.969 38.058 13.959V23.166C38.058 23.386 37.981 23.573 37.827 23.727C37.673 23.881 37.486 23.958 37.266 23.958H34.494ZM65.7234 30.228C65.5034 30.228 65.3164 30.151 65.1624 29.997C65.0084 29.843 64.9314 29.656 64.9314 29.436V7.59001C64.9314 7.37001 65.0084 7.18301 65.1624 7.02901C65.3164 6.87501 65.5034 6.79801 65.7234 6.79801H68.3304C68.5724 6.79801 68.7594 6.87501 68.8914 7.02901C69.0454 7.18301 69.1224 7.37001 69.1224 7.59001V8.91001C69.6504 8.20601 70.3434 7.62301 71.2014 7.16101C72.0594 6.69901 73.1264 6.46801 74.4024 6.46801C75.5684 6.46801 76.5804 6.65501 77.4384 7.02901C78.2964 7.40301 79.0114 7.94201 79.5834 8.64601C80.1554 9.32801 80.5954 10.142 80.9034 11.088C81.2114 12.034 81.3874 13.079 81.4314 14.223C81.4534 14.597 81.4644 14.982 81.4644 15.378C81.4644 15.774 81.4534 16.17 81.4314 16.566C81.4094 17.666 81.2444 18.689 80.9364 19.635C80.6284 20.559 80.1774 21.373 79.5834 22.077C79.0114 22.759 78.2964 23.298 77.4384 23.694C76.5804 24.09 75.5684 24.288 74.4024 24.288C73.2144 24.288 72.2024 24.079 71.3664 23.661C70.5304 23.221 69.8484 22.649 69.3204 21.945V29.436C69.3204 29.656 69.2434 29.843 69.0894 29.997C68.9574 30.151 68.7704 30.228 68.5284 30.228H65.7234ZM73.1814 20.757C74.1274 20.757 74.8644 20.559 75.3924 20.163C75.9204 19.745 76.2944 19.206 76.5144 18.546C76.7564 17.886 76.8994 17.16 76.9434 16.368C76.9874 15.708 76.9874 15.048 76.9434 14.388C76.8994 13.596 76.7564 12.87 76.5144 12.21C76.2944 11.55 75.9204 11.022 75.3924 10.626C74.8644 10.208 74.1274 9.99901 73.1814 9.99901C72.2794 9.99901 71.5424 10.208 70.9704 10.626C70.4204 11.044 70.0134 11.583 69.7494 12.243C69.5074 12.881 69.3644 13.541 69.3204 14.223C69.2984 14.619 69.2874 15.037 69.2874 15.477C69.2874 15.917 69.2984 16.346 69.3204 16.764C69.3424 17.424 69.4964 18.062 69.7824 18.678C70.0684 19.272 70.4864 19.767 71.0364 20.163C71.5864 20.559 72.3014 20.757 73.1814 20.757ZM87.4129 23.958C87.1929 23.958 87.0059 23.881 86.8519 23.727C86.6979 23.573 86.6209 23.386 86.6209 23.166V1.32001C86.6209 1.10001 86.6979 0.913007 86.8519 0.759008C87.0059 0.605007 87.1929 0.528007 87.4129 0.528007H90.1519C90.3719 0.528007 90.5589 0.605007 90.7129 0.759008C90.8669 0.913007 90.9439 1.10001 90.9439 1.32001V23.166C90.9439 23.386 90.8669 23.573 90.7129 23.727C90.5589 23.881 90.3719 23.958 90.1519 23.958H87.4129ZM104.132 24.288C101.69 24.288 99.7543 23.584 98.3243 22.176C96.8943 20.768 96.1243 18.766 96.0143 16.17C95.9923 15.95 95.9813 15.675 95.9813 15.345C95.9813 14.993 95.9923 14.718 96.0143 14.52C96.1023 12.87 96.4763 11.44 97.1363 10.23C97.8183 9.02001 98.7533 8.09601 99.9413 7.45801C101.129 6.79801 102.526 6.46801 104.132 6.46801C105.914 6.46801 107.41 6.84201 108.62 7.59001C109.83 8.31601 110.743 9.33901 111.359 10.659C111.975 11.957 112.283 13.464 112.283 15.18V15.873C112.283 16.093 112.206 16.28 112.052 16.434C111.898 16.588 111.7 16.665 111.458 16.665H100.502C100.502 16.665 100.502 16.698 100.502 16.764C100.502 16.83 100.502 16.885 100.502 16.929C100.524 17.699 100.667 18.414 100.931 19.074C101.217 19.712 101.624 20.229 102.152 20.625C102.702 21.021 103.351 21.219 104.099 21.219C104.715 21.219 105.232 21.131 105.65 20.955C106.068 20.757 106.409 20.537 106.673 20.295C106.937 20.053 107.124 19.855 107.234 19.701C107.432 19.437 107.586 19.283 107.696 19.239C107.828 19.173 108.015 19.14 108.257 19.14H111.095C111.315 19.14 111.491 19.206 111.623 19.338C111.777 19.47 111.843 19.635 111.821 19.833C111.799 20.185 111.612 20.614 111.26 21.12C110.93 21.626 110.446 22.121 109.808 22.605C109.17 23.089 108.367 23.496 107.399 23.826C106.453 24.134 105.364 24.288 104.132 24.288ZM100.502 13.893H107.795V13.794C107.795 12.936 107.652 12.188 107.366 11.55C107.08 10.912 106.662 10.406 106.112 10.032C105.562 9.65801 104.902 9.47101 104.132 9.47101C103.362 9.47101 102.702 9.65801 102.152 10.032C101.602 10.406 101.184 10.912 100.898 11.55C100.634 12.188 100.502 12.936 100.502 13.794V13.893Z" fill="#FF6838"/>
<path d="M118.393 23.958C118.173 23.958 117.986 23.881 117.832 23.727C117.678 23.573 117.601 23.386 117.601 23.166V1.68301C117.601 1.44101 117.678 1.24301 117.832 1.08901C117.986 0.935007 118.173 0.858006 118.393 0.858006H132.715C132.957 0.858006 133.155 0.935007 133.309 1.08901C133.463 1.24301 133.54 1.44101 133.54 1.68301V3.99301C133.54 4.23501 133.463 4.43301 133.309 4.58701C133.155 4.71901 132.957 4.78501 132.715 4.78501H122.122V11.055H132.055C132.297 11.055 132.495 11.132 132.649 11.286C132.803 11.44 132.88 11.638 132.88 11.88V14.19C132.88 14.41 132.803 14.597 132.649 14.751C132.495 14.905 132.297 14.982 132.055 14.982H122.122V23.166C122.122 23.386 122.045 23.573 121.891 23.727C121.737 23.881 121.539 23.958 121.297 23.958H118.393ZM145.711 24.288C143.951 24.288 142.466 23.98 141.256 23.364C140.068 22.748 139.155 21.879 138.517 20.757C137.901 19.635 137.549 18.326 137.461 16.83C137.439 16.434 137.428 15.95 137.428 15.378C137.428 14.806 137.439 14.322 137.461 13.926C137.549 12.408 137.912 11.099 138.55 9.99901C139.21 8.87701 140.134 8.00801 141.322 7.39201C142.532 6.77601 143.995 6.46801 145.711 6.46801C147.427 6.46801 148.879 6.77601 150.067 7.39201C151.277 8.00801 152.201 8.87701 152.839 9.99901C153.499 11.099 153.873 12.408 153.961 13.926C153.983 14.322 153.994 14.806 153.994 15.378C153.994 15.95 153.983 16.434 153.961 16.83C153.873 18.326 153.51 19.635 152.872 20.757C152.256 21.879 151.343 22.748 150.133 23.364C148.945 23.98 147.471 24.288 145.711 24.288ZM145.711 21.021C146.877 21.021 147.779 20.658 148.417 19.932C149.055 19.184 149.407 18.095 149.473 16.665C149.495 16.335 149.506 15.906 149.506 15.378C149.506 14.85 149.495 14.421 149.473 14.091C149.407 12.683 149.055 11.605 148.417 10.857C147.779 10.109 146.877 9.73501 145.711 9.73501C144.545 9.73501 143.643 10.109 143.005 10.857C142.367 11.605 142.015 12.683 141.949 14.091C141.927 14.421 141.916 14.85 141.916 15.378C141.916 15.906 141.927 16.335 141.949 16.665C142.015 18.095 142.367 19.184 143.005 19.932C143.643 20.658 144.545 21.021 145.711 21.021ZM166.66 24.288C164.9 24.288 163.415 23.98 162.205 23.364C161.017 22.748 160.104 21.879 159.466 20.757C158.85 19.635 158.498 18.326 158.41 16.83C158.388 16.434 158.377 15.95 158.377 15.378C158.377 14.806 158.388 14.322 158.41 13.926C158.498 12.408 158.861 11.099 159.499 9.99901C160.159 8.87701 161.083 8.00801 162.271 7.39201C163.481 6.77601 164.944 6.46801 166.66 6.46801C168.376 6.46801 169.828 6.77601 171.016 7.39201C172.226 8.00801 173.15 8.87701 173.788 9.99901C174.448 11.099 174.822 12.408 174.91 13.926C174.932 14.322 174.943 14.806 174.943 15.378C174.943 15.95 174.932 16.434 174.91 16.83C174.822 18.326 174.459 19.635 173.821 20.757C173.205 21.879 172.292 22.748 171.082 23.364C169.894 23.98 168.42 24.288 166.66 24.288ZM166.66 21.021C167.826 21.021 168.728 20.658 169.366 19.932C170.004 19.184 170.356 18.095 170.422 16.665C170.444 16.335 170.455 15.906 170.455 15.378C170.455 14.85 170.444 14.421 170.422 14.091C170.356 12.683 170.004 11.605 169.366 10.857C168.728 10.109 167.826 9.73501 166.66 9.73501C165.494 9.73501 164.592 10.109 163.954 10.857C163.316 11.605 162.964 12.683 162.898 14.091C162.876 14.421 162.865 14.85 162.865 15.378C162.865 15.906 162.876 16.335 162.898 16.665C162.964 18.095 163.316 19.184 163.954 19.932C164.592 20.658 165.494 21.021 166.66 21.021ZM186.387 24.288C185.243 24.288 184.231 24.101 183.351 23.727C182.493 23.331 181.778 22.781 181.206 22.077C180.634 21.373 180.194 20.548 179.886 19.602C179.578 18.634 179.402 17.578 179.358 16.434C179.336 16.038 179.325 15.686 179.325 15.378C179.325 15.048 179.336 14.685 179.358 14.289C179.402 13.189 179.567 12.166 179.853 11.22C180.161 10.274 180.601 9.44901 181.173 8.74501C181.767 8.01901 182.493 7.45801 183.351 7.06201C184.231 6.66601 185.243 6.46801 186.387 6.46801C187.575 6.46801 188.576 6.67701 189.39 7.09501C190.226 7.49101 190.919 8.00801 191.469 8.64601V1.32001C191.469 1.10001 191.535 0.913007 191.667 0.759008C191.821 0.605007 192.019 0.528007 192.261 0.528007H195.066C195.286 0.528007 195.473 0.605007 195.627 0.759008C195.781 0.913007 195.858 1.10001 195.858 1.32001V23.166C195.858 23.386 195.781 23.573 195.627 23.727C195.473 23.881 195.286 23.958 195.066 23.958H192.459C192.217 23.958 192.019 23.881 191.865 23.727C191.733 23.573 191.667 23.386 191.667 23.166V21.945C191.117 22.627 190.413 23.188 189.555 23.628C188.719 24.068 187.663 24.288 186.387 24.288ZM187.608 20.757C188.532 20.757 189.269 20.548 189.819 20.13C190.369 19.712 190.776 19.184 191.04 18.546C191.304 17.886 191.447 17.215 191.469 16.533C191.491 16.137 191.502 15.719 191.502 15.279C191.502 14.817 191.491 14.388 191.469 13.992C191.447 13.332 191.293 12.705 191.007 12.111C190.721 11.495 190.303 10.989 189.753 10.593C189.203 10.197 188.488 9.99901 187.608 9.99901C186.684 9.99901 185.947 10.208 185.397 10.626C184.869 11.022 184.484 11.55 184.242 12.21C184 12.87 183.857 13.596 183.813 14.388C183.791 15.048 183.791 15.708 183.813 16.368C183.857 17.16 184 17.886 184.242 18.546C184.484 19.206 184.869 19.745 185.397 20.163C185.947 20.559 186.684 20.757 187.608 20.757Z" fill="#363853"/>
</svg>
